<?xml version="1.0" standalone="no"?>
<!DOCTYPE svg PUBLIC "-//W3C//DTD SVG 20010904//EN"
 "http://www.w3.org/TR/2001/REC-SVG-20010904/DTD/svg10.dtd">
<svg version="1.0" xmlns="http://www.w3.org/2000/svg"
 width="622.000000pt" height="541.000000pt" viewBox="0 0 622.000000 541.000000"
 preserveAspectRatio="xMidYMid meet">
<metadata>
Created by potrace 1.16, written by Peter Selinger 2001-2019
</metadata>
<g transform="translate(0.000000,541.000000) scale(0.100000,-0.100000)"
fill="#000000" stroke="none">
<path d="M2175 4449 c-275 -40 -535 -242 -675 -524 -81 -162 -103 -257 -103
-435 0 -160 21 -264 82 -422 48 -122 65 -148 95 -148 51 0 59 44 22 118 -94
188 -128 430 -87 629 37 176 112 314 246 449 293 295 622 320 999 77 92 -59
155 -112 297 -250 64 -62 123 -113 131 -113 7 0 49 36 93 81 166 168 344 302
489 369 131 60 194 74 331 74 103 -1 130 -5 195 -28 107 -38 197 -95 293 -186
284 -269 361 -629 218 -1021 -70 -191 -139 -287 -462 -644 -937 -1032 -1150
-1265 -1158 -1265 -9 0 -330 352 -905 990 -190 212 -357 394 -371 404 -23 18
-25 18 -50 2 -18 -12 -25 -24 -23 -40 3 -22 286 -340 1022 -1149 164 -181 305
-331 313 -334 32 -13 -32 -80 848 892 722 797 666 733 730 829 142 215 225
466 225 686 0 266 -120 539 -316 720 -269 249 -568 308 -886 175 -165 -70
-289 -154 -476 -324 l-113 -103 -82 79 c-262 250 -491 379 -732 412 -86 12
-105 12 -190 0z"/>
<path d="M3100 3595 c-7 -8 -95 -263 -196 -566 -101 -304 -186 -554 -189 -557
-3 -3 -86 74 -183 171 l-178 177 -705 0 c-621 0 -707 -2 -727 -16 -27 -19 -29
-60 -3 -74 13 -6 253 -10 708 -10 l687 0 201 -200 c111 -110 208 -200 216
-200 8 0 22 6 31 13 9 6 89 231 178 500 89 268 165 487 168 487 4 0 45 -305
91 -678 46 -372 88 -685 93 -694 12 -25 64 -24 78 1 5 11 68 176 140 368 72
191 135 360 141 376 l11 27 242 0 c254 0 266 2 266 45 -1 50 -1 50 -283 53
-242 3 -265 1 -284 -15 -18 -16 -55 -110 -198 -498 -37 -99 -55 -133 -55 -105
0 8 -20 173 -45 365 -25 193 -63 501 -85 685 -43 348 -46 360 -91 360 -9 0
-22 -7 -29 -15z"/>
</g>
</svg>
